<?xml version="1.0" encoding="UTF-8" standalone="no"?><svg xmlns:svg="http://www.w3.org/2000/svg" xmlns="http://www.w3.org/2000/svg" xmlns:xlink="http://www.w3.org/1999/xlink" version="1.0" width="64px" height="64px" viewBox="0 0 128 128" xml:space="preserve"><g><path d="M64 0l2.48 7.64h8.02L68 12.36 70.5 20 64 15.28 57.5 20l2.5-7.64-6.5-4.72h8.02z" fill="#003399"/><path d="M64 0l2.48 7.64h8.02L68 12.36 70.5 20 64 15.28 57.5 20l2.5-7.64-6.5-4.72h8.02z" fill="#f8f9fc" transform="rotate(30 64 64)"/><path d="M64 0l2.48 7.64h8.02L68 12.36 70.5 20 64 15.28 57.5 20l2.5-7.64-6.5-4.72h8.02z" fill="#e8edf6" transform="rotate(60 64 64)"/><path d="M64 0l2.48 7.64h8.02L68 12.36 70.5 20 64 15.28 57.5 20l2.5-7.64-6.5-4.72h8.02z" fill="#d4ddee" transform="rotate(90 64 64)"/><path d="M64 0l2.48 7.64h8.02L68 12.36 70.5 20 64 15.28 57.5 20l2.5-7.64-6.5-4.72h8.02z" fill="#becbe5" transform="rotate(120 64 64)"/><path d="M64 0l2.48 7.64h8.02L68 12.36 70.5 20 64 15.28 57.5 20l2.5-7.64-6.5-4.72h8.02z" fill="#a6b8db" transform="rotate(150 64 64)"/><path d="M64 0l2.48 7.64h8.02L68 12.36 70.5 20 64 15.28 57.5 20l2.5-7.64-6.5-4.72h8.02z" fill="#8ea5d2" transform="rotate(180 64 64)"/><path d="M64 0l2.48 7.64h8.02L68 12.36 70.5 20 64 15.28 57.5 20l2.5-7.64-6.5-4.72h8.02z" fill="#738fc7" transform="rotate(210 64 64)"/><path d="M64 0l2.48 7.64h8.02L68 12.36 70.5 20 64 15.28 57.5 20l2.5-7.64-6.5-4.72h8.02z" fill="#5a7bbd" transform="rotate(240 64 64)"/><path d="M64 0l2.48 7.64h8.02L68 12.36 70.5 20 64 15.28 57.5 20l2.5-7.64-6.5-4.72h8.02z" fill="#4167b3" transform="rotate(270 64 64)"/><path d="M64 0l2.48 7.64h8.02L68 12.36 70.5 20 64 15.28 57.5 20l2.5-7.64-6.5-4.72h8.02z" fill="#2a55aa" transform="rotate(300 64 64)"/><path d="M64 0l2.48 7.64h8.02L68 12.36 70.5 20 64 15.28 57.5 20l2.5-7.64-6.5-4.72h8.02z" fill="#1544a1" transform="rotate(330 64 64)"/><animateTransform attributeName="transform" type="rotate" values="0 64 64;30 64 64;60 64 64;90 64 64;120 64 64;150 64 64;180 64 64;210 64 64;240 64 64;270 64 64;300 64 64;330 64 64" calcMode="discrete" dur="1320ms" repeatCount="indefinite"></animateTransform></g></svg>